<svg xmlns="http://www.w3.org/2000/svg" xmlns:xlink="http://www.w3.org/1999/xlink" width="500" zoomAndPan="magnify" viewBox="0 0 375 374.999991" height="500" preserveAspectRatio="xMidYMid meet" version="1.0"><defs><g/><clipPath id="ef062ddb54"><path d="M 243 130.019531 L 361 130.019531 L 361 280 L 243 280 Z M 243 130.019531 " clip-rule="nonzero"/></clipPath></defs><g clip-path="url(#ef062ddb54)"><path fill="#ffffff" d="M 291.835938 185.105469 C 263.9375 177.761719 262.59375 152.855469 271.339844 130.0625 C 260.582031 137.070312 254.683594 148.0625 251.671875 159.644531 L 247.210938 148.90625 C 241.792969 163.441406 246.042969 174.617188 250.847656 185.597656 L 243.738281 180.640625 C 245.53125 192.863281 252.296875 200.925781 260.925781 207.414062 C 269.246094 213.328125 277.566406 215.828125 285.886719 216.671875 C 268.648438 211.929688 260.21875 202.207031 253.160156 191.714844 L 263.074219 193.53125 C 256.167969 186.273438 250.417969 177.933594 249.6875 164.9375 L 255.144531 170.390625 C 255.507812 160.871094 256.511719 151.582031 263.074219 144.277344 C 259.609375 165.050781 268.183594 185.359375 291.671875 189.234375 C 303.789062 189.160156 292.476562 177.398438 300.761719 167.910156 L 298.613281 165.761719 C 301.53125 165.902344 314.363281 164.945312 315.242188 169.292969 C 315.328125 169.714844 315.300781 170.191406 315.140625 170.722656 C 293.953125 176.910156 317.183594 191.289062 308.742188 208.996094 C 304.617188 217.660156 297.648438 227.210938 291.457031 235.289062 C 278.847656 251.730469 292.71875 265.820312 301.75 279.972656 C 318.527344 253.789062 324.695312 252.285156 307.042969 225.101562 C 312.277344 247.203125 315.9375 250.019531 302.085938 269.726562 C 270.507812 235.027344 325.523438 222.921875 313.875 189.011719 C 336.441406 184.648438 344.660156 164.6875 341.253906 144.273438 C 347.820312 151.582031 348.828125 160.867188 349.191406 170.386719 L 354.644531 164.9375 C 353.917969 177.933594 348.164062 186.269531 341.257812 193.527344 L 351.175781 191.710938 C 344.109375 202.203125 335.683594 211.929688 318.445312 216.667969 C 326.765625 215.824219 335.082031 213.328125 343.40625 207.414062 C 352.035156 200.921875 358.800781 192.863281 360.59375 180.636719 L 353.488281 185.597656 C 358.289062 174.613281 362.539062 163.441406 357.121094 148.902344 L 352.660156 159.644531 C 349.648438 148.058594 343.75 137.070312 332.992188 130.058594 C 341.738281 152.851562 340.394531 177.761719 312.496094 185.101562 L 312.488281 185.402344 C 310.871094 181.070312 309.628906 175.246094 315.003906 173.007812 C 316.359375 172.441406 317.96875 172.441406 319.769531 172.867188 C 320.414062 154.570312 303.105469 166.339844 291.175781 157.664062 C 292.269531 161.695312 293.992188 164.871094 296.300781 167.25 C 291.972656 172.304688 291.917969 178.707031 291.835938 185.105469 Z M 291.835938 185.105469 " fill-opacity="1" fill-rule="evenodd"/></g><g fill="#d9d9d9" fill-opacity="1"><g transform="translate(23.187132, 212.237128)"><g><path d="M 22 -10.21875 C 22.269531 -10.289062 22.5 -10.316406 22.6875 -10.296875 C 22.875 -10.273438 22.976562 -10.207031 23 -10.09375 C 23.019531 -9.976562 22.847656 -9.796875 22.484375 -9.546875 C 22.335938 -9.472656 22.164062 -9.359375 21.96875 -9.203125 C 21.25 -8.691406 20.414062 -8.128906 19.46875 -7.515625 C 18.457031 -6.828125 17.535156 -6.191406 16.703125 -5.609375 C 15.878906 -5.035156 15.332031 -4.601562 15.0625 -4.3125 C 14.757812 -3.894531 14.570312 -3.4375 14.5 -2.9375 C 14.425781 -2.445312 14.375 -1.921875 14.34375 -1.359375 C 14.3125 -0.910156 14.265625 -0.460938 14.203125 -0.015625 C 13.441406 4.753906 12.144531 8.828125 10.3125 12.203125 C 8.476562 15.585938 6.414062 18.28125 4.125 20.28125 C 1.84375 22.289062 -0.382812 23.601562 -2.5625 24.21875 C -4.738281 24.832031 -6.578125 24.75 -8.078125 23.96875 C -9.578125 23.195312 -10.460938 21.734375 -10.734375 19.578125 C -10.878906 17.816406 -10.519531 16.019531 -9.65625 14.1875 C -8.789062 12.363281 -7.640625 10.613281 -6.203125 8.9375 C -4.765625 7.269531 -3.242188 5.738281 -1.640625 4.34375 C -0.0351562 2.945312 1.445312 1.789062 2.8125 0.875 C 3.1875 0.601562 3.582031 0.332031 4 0.0625 C 5.9375 -1.269531 7.898438 -2.5625 9.890625 -3.8125 C 11.160156 -4.519531 11.753906 -5.554688 11.671875 -6.921875 C 11.671875 -7.066406 11.671875 -7.273438 11.671875 -7.546875 C 11.640625 -7.941406 11.625 -8.363281 11.625 -8.8125 C 10.851562 -7.59375 9.769531 -6.488281 8.375 -5.5 C 6.976562 -4.519531 5.546875 -3.816406 4.078125 -3.390625 C 2.609375 -2.960938 1.351562 -2.984375 0.3125 -3.453125 C -0.71875 -3.929688 -1.253906 -5.035156 -1.296875 -6.765625 C -1.253906 -7.648438 -1 -8.460938 -0.53125 -9.203125 C 0.59375 -11.191406 2.15625 -12.753906 4.15625 -13.890625 C 4.894531 -14.296875 5.789062 -14.585938 6.84375 -14.765625 C 7.894531 -14.941406 8.910156 -14.925781 9.890625 -14.71875 C 10.867188 -14.507812 11.65625 -14.035156 12.25 -13.296875 C 12.394531 -13.535156 12.609375 -13.691406 12.890625 -13.765625 C 13.171875 -13.847656 13.4375 -13.890625 13.6875 -13.890625 C 13.738281 -13.890625 13.773438 -13.890625 13.796875 -13.890625 C 14.910156 -13.992188 15.429688 -13.484375 15.359375 -12.359375 C 15.335938 -11.554688 15.3125 -10.753906 15.28125 -9.953125 C 15.25 -9.359375 15.21875 -8.78125 15.1875 -8.21875 C 15.21875 -7.539062 15.585938 -7.320312 16.296875 -7.5625 C 17.003906 -7.800781 17.867188 -8.203125 18.890625 -8.765625 C 20.046875 -9.441406 21.082031 -9.925781 22 -10.21875 Z M 9 -9.109375 C 10.25 -10.359375 10.929688 -11.320312 11.046875 -12 C 10.753906 -12.539062 10.289062 -12.867188 9.65625 -12.984375 C 9.03125 -13.097656 8.394531 -13.085938 7.75 -12.953125 C 7.101562 -12.828125 6.554688 -12.628906 6.109375 -12.359375 C 4.878906 -11.597656 3.976562 -10.664062 3.40625 -9.5625 C 2.832031 -8.46875 2.617188 -7.53125 2.765625 -6.75 C 2.921875 -5.976562 3.5 -5.710938 4.5 -5.953125 C 5.507812 -6.191406 7.007812 -7.242188 9 -9.109375 Z M 10.6875 -0.25 C 10.6875 -0.28125 10.703125 -0.3125 10.734375 -0.34375 C 10.765625 -0.519531 10.796875 -0.742188 10.828125 -1.015625 C 10.859375 -1.285156 10.847656 -1.503906 10.796875 -1.671875 C 10.753906 -1.847656 10.644531 -1.878906 10.46875 -1.765625 C 9.226562 -0.898438 7.925781 0.0507812 6.5625 1.09375 C 5.75 1.6875 4.984375 2.234375 4.265625 2.734375 C 3.265625 3.472656 2.097656 4.4375 0.765625 5.625 C -0.566406 6.8125 -1.875 8.140625 -3.15625 9.609375 C -4.4375 11.085938 -5.488281 12.597656 -6.3125 14.140625 C -7.144531 15.679688 -7.5625 17.160156 -7.5625 18.578125 C -7.46875 20.597656 -6.898438 21.816406 -5.859375 22.234375 C -4.828125 22.648438 -3.523438 22.394531 -1.953125 21.46875 C -0.378906 20.550781 1.25 19.066406 2.9375 17.015625 C 4.632812 14.972656 6.179688 12.484375 7.578125 9.546875 C 8.972656 6.609375 10.007812 3.34375 10.6875 -0.25 Z M 10.6875 -0.25 "/></g></g><g transform="translate(44.626115, 212.237128)"><g><path d="M 10.5 -8.21875 C 10.082031 -7.351562 9.367188 -6.394531 8.359375 -5.34375 C 7.359375 -4.289062 6.21875 -3.625 4.9375 -3.34375 C 3.664062 -3.0625 2.453125 -3.5 1.296875 -4.65625 C 0.847656 -5.164062 0.519531 -5.753906 0.3125 -6.421875 C 0.101562 -7.085938 0.0234375 -7.75 0.078125 -8.40625 C 0.078125 -8.570312 0.078125 -8.789062 0.078125 -9.0625 C 0.078125 -9.75 0.109375 -10.546875 0.171875 -11.453125 C 0.234375 -12.359375 0.367188 -13.175781 0.578125 -13.90625 C 0.785156 -14.632812 1.113281 -15.070312 1.5625 -15.21875 C 2.84375 -15.539062 3.535156 -15.097656 3.640625 -13.890625 C 3.640625 -13.492188 3.628906 -13.101562 3.609375 -12.71875 C 3.578125 -12.507812 3.5625 -12.316406 3.5625 -12.140625 C 3.53125 -11.578125 3.503906 -11.007812 3.484375 -10.4375 C 3.484375 -10 3.460938 -9.554688 3.421875 -9.109375 C 3.390625 -7.148438 3.828125 -5.984375 4.734375 -5.609375 C 5.640625 -5.242188 6.671875 -5.640625 7.828125 -6.796875 C 8.992188 -7.960938 9.753906 -8.925781 10.109375 -9.6875 C 10.460938 -10.457031 10.71875 -10.617188 10.875 -10.171875 C 11.039062 -9.734375 10.914062 -9.082031 10.5 -8.21875 Z M 3.375 -19.390625 C 3.195312 -19.242188 2.984375 -19.148438 2.734375 -19.109375 C 2.492188 -19.066406 2.273438 -19.085938 2.078125 -19.171875 C 1.929688 -19.285156 1.835938 -19.441406 1.796875 -19.640625 C 1.753906 -19.835938 1.734375 -20.070312 1.734375 -20.34375 C 1.734375 -20.394531 1.75 -20.445312 1.78125 -20.5 C 1.8125 -20.75 1.875 -20.992188 1.96875 -21.234375 C 2.238281 -21.878906 2.796875 -22.175781 3.640625 -22.125 C 3.941406 -22.082031 4.175781 -21.957031 4.34375 -21.75 C 4.507812 -21.550781 4.546875 -21.316406 4.453125 -21.046875 C 4.253906 -20.390625 3.894531 -19.835938 3.375 -19.390625 Z M 3.375 -19.390625 "/></g></g><g transform="translate(54.566191, 212.237128)"><g><path d="M 31.75 -9.875 C 31.875 -10.101562 32.0625 -10.222656 32.3125 -10.234375 C 32.5625 -10.253906 32.773438 -10.101562 32.953125 -9.78125 C 33.015625 -9.695312 32.945312 -9.46875 32.75 -9.09375 C 32.5625 -8.726562 32.304688 -8.3125 31.984375 -7.84375 C 31.660156 -7.375 31.347656 -6.945312 31.046875 -6.5625 C 30.753906 -6.175781 30.546875 -5.925781 30.421875 -5.8125 C 29.085938 -4.320312 27.742188 -3.226562 26.390625 -2.53125 C 25.046875 -1.84375 23.582031 -1.695312 22 -2.09375 C 20.425781 -2.488281 18.660156 -3.613281 16.703125 -5.46875 C 16.398438 -5.789062 16.101562 -6.113281 15.8125 -6.4375 C 15.726562 -6.53125 15.648438 -6.617188 15.578125 -6.703125 C 15.253906 -7.066406 14.898438 -7.113281 14.515625 -6.84375 C 14.109375 -6.539062 13.695312 -6.242188 13.28125 -5.953125 C 12.914062 -5.679688 12.546875 -5.429688 12.171875 -5.203125 C 10.910156 -4.335938 9.585938 -3.609375 8.203125 -3.015625 C 6.710938 -2.359375 5.148438 -2.101562 3.515625 -2.25 C 0.972656 -2.539062 -0.34375 -3.953125 -0.4375 -6.484375 C -0.46875 -8.265625 -0.09375 -9.859375 0.6875 -11.265625 C 1.476562 -12.671875 2.578125 -13.707031 3.984375 -14.375 C 5.398438 -15.050781 7.023438 -15.1875 8.859375 -14.78125 C 9.066406 -14.738281 9.335938 -14.675781 9.671875 -14.59375 C 9.878906 -14.53125 10.128906 -14.46875 10.421875 -14.40625 C 10.242188 -14.820312 10.082031 -15.195312 9.9375 -15.53125 C 9.664062 -16.0625 9.429688 -16.550781 9.234375 -17 C 8.003906 -19.519531 7.003906 -22.398438 6.234375 -25.640625 C 5.460938 -28.890625 5.082031 -32.222656 5.09375 -35.640625 C 5.113281 -39.054688 5.6875 -42.234375 6.8125 -45.171875 C 7.9375 -48.117188 9.804688 -50.539062 12.421875 -52.4375 C 14.085938 -53.5625 15.800781 -54.171875 17.5625 -54.265625 C 19.332031 -54.359375 21.003906 -53.972656 22.578125 -53.109375 C 24.148438 -52.242188 25.429688 -50.945312 26.421875 -49.21875 C 27.679688 -46.84375 28.460938 -44.34375 28.765625 -41.71875 C 29.304688 -37.46875 29.21875 -33.5 28.5 -29.8125 C 27.78125 -26.125 26.515625 -22.640625 24.703125 -19.359375 C 22.898438 -16.085938 20.601562 -12.90625 17.8125 -9.8125 C 17.539062 -9.519531 17.394531 -9.285156 17.375 -9.109375 C 17.363281 -8.929688 17.492188 -8.679688 17.765625 -8.359375 C 18.335938 -7.617188 18.957031 -6.894531 19.625 -6.1875 C 20.289062 -5.488281 21.035156 -4.90625 21.859375 -4.4375 C 23.015625 -3.9375 24.253906 -3.925781 25.578125 -4.40625 C 26.898438 -4.894531 28.125 -5.648438 29.25 -6.671875 C 30.382812 -7.703125 31.21875 -8.769531 31.75 -9.875 Z M 11.90625 -8.09375 C 12.25 -8.394531 12.273438 -8.734375 11.984375 -9.109375 C 11.804688 -9.328125 11.628906 -9.550781 11.453125 -9.78125 C 10.972656 -10.375 10.421875 -10.984375 9.796875 -11.609375 C 9.171875 -12.234375 8.523438 -12.707031 7.859375 -13.03125 C 7.191406 -13.351562 6.515625 -13.378906 5.828125 -13.109375 C 4.878906 -12.671875 4.101562 -11.882812 3.5 -10.75 C 2.894531 -9.625 2.535156 -8.46875 2.421875 -7.28125 C 2.316406 -6.09375 2.546875 -5.1875 3.109375 -4.5625 C 3.679688 -3.945312 4.648438 -3.890625 6.015625 -4.390625 C 8.160156 -5.335938 10.125 -6.570312 11.90625 -8.09375 Z M 16.390625 -12.484375 C 19.242188 -15.847656 21.375 -19.15625 22.78125 -22.40625 C 24.1875 -25.65625 25.140625 -29.460938 25.640625 -33.828125 C 25.796875 -34.890625 25.863281 -36.285156 25.84375 -38.015625 C 25.832031 -39.742188 25.675781 -41.546875 25.375 -43.421875 C 25.082031 -45.304688 24.550781 -47.019531 23.78125 -48.5625 C 23.007812 -50.113281 21.929688 -51.226562 20.546875 -51.90625 C 19.171875 -52.582031 17.398438 -52.578125 15.234375 -51.890625 C 12.859375 -50.503906 11.097656 -48.660156 9.953125 -46.359375 C 8.804688 -44.054688 8.148438 -41.492188 7.984375 -38.671875 C 7.828125 -35.859375 8.015625 -32.976562 8.546875 -30.03125 C 9.078125 -27.09375 9.816406 -24.300781 10.765625 -21.65625 C 11.722656 -19.019531 12.75 -16.726562 13.84375 -14.78125 C 13.96875 -14.53125 14.085938 -14.285156 14.203125 -14.046875 C 14.523438 -13.253906 15 -12.53125 15.625 -11.875 C 15.71875 -11.957031 15.8125 -12.035156 15.90625 -12.109375 C 16.082031 -12.210938 16.242188 -12.335938 16.390625 -12.484375 Z M 16.390625 -12.484375 "/></g></g><g transform="translate(86.147696, 212.237128)"><g><path d="M 19.515625 -9.78125 C 19.804688 -9.957031 20.09375 -10.09375 20.375 -10.1875 C 20.664062 -10.28125 20.851562 -10.269531 20.9375 -10.15625 C 21.03125 -10.050781 20.910156 -9.8125 20.578125 -9.4375 C 19.566406 -8.269531 18.359375 -7.203125 16.953125 -6.234375 C 15.546875 -5.273438 14.097656 -4.46875 12.609375 -3.8125 C 11.453125 -3.28125 10.226562 -2.859375 8.9375 -2.546875 C 7.644531 -2.234375 6.367188 -2.164062 5.109375 -2.34375 C 3.847656 -2.519531 2.695312 -3.082031 1.65625 -4.03125 C 0.0820312 -5.488281 -0.566406 -7.269531 -0.296875 -9.375 C -0.0664062 -11.039062 0.582031 -12.457031 1.65625 -13.625 C 2.726562 -14.800781 4.078125 -15.597656 5.703125 -16.015625 C 7.066406 -16.304688 8.429688 -16.335938 9.796875 -16.109375 C 10.421875 -16.015625 10.988281 -15.804688 11.5 -15.484375 C 11.96875 -15.117188 12.222656 -14.691406 12.265625 -14.203125 C 12.316406 -13.722656 12.132812 -13.257812 11.71875 -12.8125 C 10.851562 -12.039062 9.851562 -11.582031 8.71875 -11.4375 C 7.457031 -11.21875 6.179688 -11.082031 4.890625 -11.03125 C 4.273438 -11.03125 3.84375 -10.898438 3.59375 -10.640625 C 3.34375 -10.390625 3.195312 -9.953125 3.15625 -9.328125 C 2.957031 -7.640625 3.5 -6.265625 4.78125 -5.203125 C 5.570312 -4.566406 6.535156 -4.296875 7.671875 -4.390625 C 8.816406 -4.484375 10.03125 -4.789062 11.3125 -5.3125 C 12.59375 -5.832031 13.847656 -6.4375 15.078125 -7.125 C 16.304688 -7.820312 17.414062 -8.484375 18.40625 -9.109375 C 18.820312 -9.378906 19.191406 -9.601562 19.515625 -9.78125 Z M 5.4375 -13.375 C 5.4375 -13.351562 5.421875 -13.34375 5.390625 -13.34375 C 5.328125 -13.28125 5.253906 -13.210938 5.171875 -13.140625 C 5.085938 -13.066406 5.003906 -12.992188 4.921875 -12.921875 C 4.847656 -12.847656 4.8125 -12.796875 4.8125 -12.765625 C 4.84375 -12.671875 5.085938 -12.644531 5.546875 -12.6875 C 6.003906 -12.738281 6.507812 -12.820312 7.0625 -12.9375 C 7.613281 -13.050781 8.070312 -13.207031 8.4375 -13.40625 C 8.8125 -13.601562 8.925781 -13.835938 8.78125 -14.109375 C 8.71875 -14.191406 8.632812 -14.257812 8.53125 -14.3125 C 8.425781 -14.375 8.316406 -14.421875 8.203125 -14.453125 C 7.660156 -14.453125 7.164062 -14.347656 6.71875 -14.140625 C 6.269531 -13.929688 5.84375 -13.675781 5.4375 -13.375 Z M 5.4375 -13.375 "/></g></g><g transform="translate(105.744425, 212.237128)"><g><path d="M 15.546875 -11.078125 C 15.742188 -11.273438 15.847656 -11.023438 15.859375 -10.328125 C 15.878906 -9.640625 15.25 -8.671875 13.96875 -7.421875 C 12.695312 -6.171875 11.378906 -5.578125 10.015625 -5.640625 C 9.722656 -5.671875 9.472656 -5.648438 9.265625 -5.578125 C 9.054688 -5.503906 8.875 -5.332031 8.71875 -5.0625 C 8.570312 -4.820312 8.398438 -4.597656 8.203125 -4.390625 C 8.203125 -4.390625 8.1875 -4.378906 8.15625 -4.359375 C 7.320312 -3.460938 6.335938 -2.875 5.203125 -2.59375 C 4.078125 -2.3125 3.007812 -2.398438 2 -2.859375 C 0.988281 -3.316406 0.257812 -4.1875 -0.1875 -5.46875 C -0.507812 -6.625 -0.535156 -7.773438 -0.265625 -8.921875 C -0.0351562 -9.929688 0.332031 -10.882812 0.84375 -11.78125 C 1.46875 -12.96875 2.273438 -13.804688 3.265625 -14.296875 C 4.253906 -14.785156 5.378906 -15.0625 6.640625 -15.125 C 8.503906 -15.21875 9.675781 -14.335938 10.15625 -12.484375 C 10.457031 -11.421875 10.535156 -10.34375 10.390625 -9.25 C 10.347656 -9.007812 10.296875 -8.753906 10.234375 -8.484375 C 10.179688 -8.304688 10.132812 -8.128906 10.09375 -7.953125 C 10.039062 -7.359375 10.300781 -7.085938 10.875 -7.140625 C 12.4375 -7.410156 13.992188 -8.722656 15.546875 -11.078125 Z M 4.53125 -4.171875 C 5.488281 -4.617188 6.15625 -5.375 6.53125 -6.4375 C 4.945312 -7.445312 3.882812 -8.90625 3.34375 -10.8125 C 2.84375 -9.914062 2.535156 -8.875 2.421875 -7.6875 C 2.316406 -6.5 2.4375 -5.515625 2.78125 -4.734375 C 3.125 -3.960938 3.707031 -3.773438 4.53125 -4.171875 Z M 7.265625 -8.546875 C 7.523438 -8.921875 7.675781 -9.382812 7.71875 -9.9375 C 7.769531 -10.488281 7.742188 -11.035156 7.640625 -11.578125 C 7.535156 -12.128906 7.390625 -12.5625 7.203125 -12.875 C 7.023438 -13.1875 6.835938 -13.28125 6.640625 -13.15625 C 6.273438 -12.832031 6.070312 -12.363281 6.03125 -11.75 C 5.988281 -11.144531 6.078125 -10.539062 6.296875 -9.9375 C 6.523438 -9.332031 6.847656 -8.867188 7.265625 -8.546875 Z M 7.265625 -8.546875 "/></g></g><g transform="translate(120.826618, 212.237128)"><g><path d="M 16.734375 -7.796875 C 17.773438 -9.441406 18.394531 -10.484375 18.59375 -10.921875 C 18.789062 -11.367188 18.945312 -11.347656 19.0625 -10.859375 C 19.175781 -10.378906 18.835938 -9.285156 18.046875 -7.578125 C 17.265625 -5.867188 16.296875 -4.550781 15.140625 -3.625 C 13.984375 -2.707031 12.898438 -2.367188 11.890625 -2.609375 C 10.890625 -2.847656 10.171875 -3.546875 9.734375 -4.703125 C 9.304688 -5.859375 9.175781 -7.3125 9.34375 -9.0625 C 9.34375 -9.09375 9.359375 -9.171875 9.390625 -9.296875 C 9.421875 -9.585938 9.472656 -10.019531 9.546875 -10.59375 C 9.617188 -11.175781 9.671875 -11.78125 9.703125 -12.40625 C 9.734375 -13.03125 9.710938 -13.539062 9.640625 -13.9375 C 9.566406 -14.34375 9.382812 -14.488281 9.09375 -14.375 C 8.375 -13.976562 7.671875 -13.207031 6.984375 -12.0625 C 6.304688 -10.925781 5.691406 -9.734375 5.140625 -8.484375 C 4.585938 -7.242188 4.195312 -6.238281 3.96875 -5.46875 C 3.875 -5.21875 3.785156 -4.960938 3.703125 -4.703125 C 3.578125 -4.347656 3.441406 -3.992188 3.296875 -3.640625 C 2.910156 -2.628906 2.226562 -2.238281 1.25 -2.46875 C 0.707031 -2.59375 0.390625 -2.925781 0.296875 -3.46875 C 0.273438 -3.882812 0.265625 -4.28125 0.265625 -4.65625 C 0.265625 -4.894531 0.25 -5.117188 0.21875 -5.328125 C 0.164062 -8.316406 0.09375 -11.332031 0 -14.375 C 0.03125 -14.71875 0.1875 -14.957031 0.46875 -15.09375 C 0.75 -15.226562 1.085938 -15.296875 1.484375 -15.296875 C 1.773438 -15.296875 2.050781 -15.210938 2.3125 -15.046875 C 2.582031 -14.890625 2.75 -14.554688 2.8125 -14.046875 C 2.84375 -13.867188 2.859375 -13.691406 2.859375 -13.515625 C 2.878906 -13.421875 2.890625 -13.332031 2.890625 -13.25 C 2.941406 -12.832031 2.96875 -12.476562 2.96875 -12.1875 C 2.96875 -11.738281 3 -11.429688 3.0625 -11.265625 C 3.125 -11.109375 3.253906 -11.117188 3.453125 -11.296875 C 3.648438 -11.472656 3.96875 -11.890625 4.40625 -12.546875 C 5.175781 -13.734375 6.128906 -14.738281 7.265625 -15.5625 C 8.304688 -16.300781 9.445312 -16.613281 10.6875 -16.5 C 11.75 -16.382812 12.460938 -15.820312 12.828125 -14.8125 C 12.984375 -14.300781 13.0625 -13.785156 13.0625 -13.265625 C 13.0625 -12.742188 13.023438 -12.222656 12.953125 -11.703125 C 12.921875 -11.160156 12.878906 -10.609375 12.828125 -10.046875 C 12.785156 -9.867188 12.753906 -9.691406 12.734375 -9.515625 C 12.554688 -7.585938 12.613281 -6.296875 12.90625 -5.640625 C 13.207031 -4.984375 13.660156 -4.765625 14.265625 -4.984375 C 14.878906 -5.210938 15.703125 -6.148438 16.734375 -7.796875 Z M 16.734375 -7.796875 "/></g></g><g transform="translate(138.641826, 212.237128)"><g><path d="M 22.890625 -10.40625 C 22.523438 -9.269531 21.789062 -7.96875 20.6875 -6.5 C 19.59375 -5.039062 18.222656 -4.101562 16.578125 -3.6875 C 14.929688 -3.269531 13.503906 -3.328125 12.296875 -3.859375 C 11.097656 -4.390625 10.441406 -5.816406 10.328125 -8.140625 C 8.960938 -5.492188 7.660156 -3.796875 6.421875 -3.046875 C 5.191406 -2.304688 3.910156 -2.023438 2.578125 -2.203125 C 1.054688 -2.453125 0.03125 -3.039062 -0.5 -3.96875 C -1.03125 -4.894531 -1.207031 -5.96875 -1.03125 -7.1875 C -0.851562 -8.414062 -0.484375 -9.585938 0.078125 -10.703125 C 0.523438 -11.546875 1.140625 -12.320312 1.921875 -13.03125 C 2.710938 -13.75 3.539062 -14.3125 4.40625 -14.71875 C 5.476562 -15.257812 6.550781 -15.515625 7.625 -15.484375 C 8.707031 -15.453125 9.863281 -15.09375 11.09375 -14.40625 C 11.113281 -14.382812 11.125 -14.414062 11.125 -14.5 C 11.125 -14.613281 11.15625 -14.757812 11.21875 -14.9375 C 11.28125 -15.125 11.382812 -15.273438 11.53125 -15.390625 C 11.9375 -15.679688 12.414062 -15.828125 12.96875 -15.828125 C 13.519531 -15.828125 13.945312 -15.550781 14.25 -15 C 14.300781 -14.28125 14.226562 -13.367188 14.03125 -12.265625 C 13.582031 -9.835938 13.578125 -8.085938 14.015625 -7.015625 C 14.460938 -5.953125 15.25 -5.457031 16.375 -5.53125 C 17.507812 -5.601562 18.972656 -6.71875 20.765625 -8.875 C 22.554688 -11.03125 23.265625 -11.539062 22.890625 -10.40625 Z M 2.96875 -4.703125 C 3.59375 -4.253906 4.304688 -4.3125 5.109375 -4.875 C 5.910156 -5.445312 6.679688 -6.25 7.421875 -7.28125 C 8.171875 -8.320312 8.796875 -9.363281 9.296875 -10.40625 C 9.804688 -11.445312 10.085938 -12.21875 10.140625 -12.71875 C 8.628906 -13.519531 7.332031 -13.65625 6.25 -13.125 C 5.175781 -12.59375 4.316406 -11.722656 3.671875 -10.515625 C 3.035156 -9.304688 2.65625 -8.128906 2.53125 -6.984375 C 2.40625 -5.847656 2.550781 -5.085938 2.96875 -4.703125 Z M 2.96875 -4.703125 "/></g></g><g transform="translate(160.101054, 212.237128)"><g><path d="M 31.75 -9.875 C 31.875 -10.101562 32.0625 -10.222656 32.3125 -10.234375 C 32.5625 -10.253906 32.773438 -10.101562 32.953125 -9.78125 C 33.015625 -9.695312 32.945312 -9.46875 32.75 -9.09375 C 32.5625 -8.726562 32.304688 -8.3125 31.984375 -7.84375 C 31.660156 -7.375 31.347656 -6.945312 31.046875 -6.5625 C 30.753906 -6.175781 30.546875 -5.925781 30.421875 -5.8125 C 29.085938 -4.320312 27.742188 -3.226562 26.390625 -2.53125 C 25.046875 -1.84375 23.582031 -1.695312 22 -2.09375 C 20.425781 -2.488281 18.660156 -3.613281 16.703125 -5.46875 C 16.398438 -5.789062 16.101562 -6.113281 15.8125 -6.4375 C 15.726562 -6.53125 15.648438 -6.617188 15.578125 -6.703125 C 15.253906 -7.066406 14.898438 -7.113281 14.515625 -6.84375 C 14.109375 -6.539062 13.695312 -6.242188 13.28125 -5.953125 C 12.914062 -5.679688 12.546875 -5.429688 12.171875 -5.203125 C 10.910156 -4.335938 9.585938 -3.609375 8.203125 -3.015625 C 6.710938 -2.359375 5.148438 -2.101562 3.515625 -2.25 C 0.972656 -2.539062 -0.34375 -3.953125 -0.4375 -6.484375 C -0.46875 -8.265625 -0.09375 -9.859375 0.6875 -11.265625 C 1.476562 -12.671875 2.578125 -13.707031 3.984375 -14.375 C 5.398438 -15.050781 7.023438 -15.1875 8.859375 -14.78125 C 9.066406 -14.738281 9.335938 -14.675781 9.671875 -14.59375 C 9.878906 -14.53125 10.128906 -14.46875 10.421875 -14.40625 C 10.242188 -14.820312 10.082031 -15.195312 9.9375 -15.53125 C 9.664062 -16.0625 9.429688 -16.550781 9.234375 -17 C 8.003906 -19.519531 7.003906 -22.398438 6.234375 -25.640625 C 5.460938 -28.890625 5.082031 -32.222656 5.09375 -35.640625 C 5.113281 -39.054688 5.6875 -42.234375 6.8125 -45.171875 C 7.9375 -48.117188 9.804688 -50.539062 12.421875 -52.4375 C 14.085938 -53.5625 15.800781 -54.171875 17.5625 -54.265625 C 19.332031 -54.359375 21.003906 -53.972656 22.578125 -53.109375 C 24.148438 -52.242188 25.429688 -50.945312 26.421875 -49.21875 C 27.679688 -46.84375 28.460938 -44.34375 28.765625 -41.71875 C 29.304688 -37.46875 29.21875 -33.5 28.5 -29.8125 C 27.78125 -26.125 26.515625 -22.640625 24.703125 -19.359375 C 22.898438 -16.085938 20.601562 -12.90625 17.8125 -9.8125 C 17.539062 -9.519531 17.394531 -9.285156 17.375 -9.109375 C 17.363281 -8.929688 17.492188 -8.679688 17.765625 -8.359375 C 18.335938 -7.617188 18.957031 -6.894531 19.625 -6.1875 C 20.289062 -5.488281 21.035156 -4.90625 21.859375 -4.4375 C 23.015625 -3.9375 24.253906 -3.925781 25.578125 -4.40625 C 26.898438 -4.894531 28.125 -5.648438 29.25 -6.671875 C 30.382812 -7.703125 31.21875 -8.769531 31.75 -9.875 Z M 11.90625 -8.09375 C 12.25 -8.394531 12.273438 -8.734375 11.984375 -9.109375 C 11.804688 -9.328125 11.628906 -9.550781 11.453125 -9.78125 C 10.972656 -10.375 10.421875 -10.984375 9.796875 -11.609375 C 9.171875 -12.234375 8.523438 -12.707031 7.859375 -13.03125 C 7.191406 -13.351562 6.515625 -13.378906 5.828125 -13.109375 C 4.878906 -12.671875 4.101562 -11.882812 3.5 -10.75 C 2.894531 -9.625 2.535156 -8.46875 2.421875 -7.28125 C 2.316406 -6.09375 2.546875 -5.1875 3.109375 -4.5625 C 3.679688 -3.945312 4.648438 -3.890625 6.015625 -4.390625 C 8.160156 -5.335938 10.125 -6.570312 11.90625 -8.09375 Z M 16.390625 -12.484375 C 19.242188 -15.847656 21.375 -19.15625 22.78125 -22.40625 C 24.1875 -25.65625 25.140625 -29.460938 25.640625 -33.828125 C 25.796875 -34.890625 25.863281 -36.285156 25.84375 -38.015625 C 25.832031 -39.742188 25.675781 -41.546875 25.375 -43.421875 C 25.082031 -45.304688 24.550781 -47.019531 23.78125 -48.5625 C 23.007812 -50.113281 21.929688 -51.226562 20.546875 -51.90625 C 19.171875 -52.582031 17.398438 -52.578125 15.234375 -51.890625 C 12.859375 -50.503906 11.097656 -48.660156 9.953125 -46.359375 C 8.804688 -44.054688 8.148438 -41.492188 7.984375 -38.671875 C 7.828125 -35.859375 8.015625 -32.976562 8.546875 -30.03125 C 9.078125 -27.09375 9.816406 -24.300781 10.765625 -21.65625 C 11.722656 -19.019531 12.75 -16.726562 13.84375 -14.78125 C 13.96875 -14.53125 14.085938 -14.285156 14.203125 -14.046875 C 14.523438 -13.253906 15 -12.53125 15.625 -11.875 C 15.71875 -11.957031 15.8125 -12.035156 15.90625 -12.109375 C 16.082031 -12.210938 16.242188 -12.335938 16.390625 -12.484375 Z M 16.390625 -12.484375 "/></g></g><g transform="translate(191.682559, 212.237128)"><g><path d="M 31.75 -9.875 C 31.875 -10.101562 32.0625 -10.222656 32.3125 -10.234375 C 32.5625 -10.253906 32.773438 -10.101562 32.953125 -9.78125 C 33.015625 -9.695312 32.945312 -9.46875 32.75 -9.09375 C 32.5625 -8.726562 32.304688 -8.3125 31.984375 -7.84375 C 31.660156 -7.375 31.347656 -6.945312 31.046875 -6.5625 C 30.753906 -6.175781 30.546875 -5.925781 30.421875 -5.8125 C 29.085938 -4.320312 27.742188 -3.226562 26.390625 -2.53125 C 25.046875 -1.84375 23.582031 -1.695312 22 -2.09375 C 20.425781 -2.488281 18.660156 -3.613281 16.703125 -5.46875 C 16.398438 -5.789062 16.101562 -6.113281 15.8125 -6.4375 C 15.726562 -6.53125 15.648438 -6.617188 15.578125 -6.703125 C 15.253906 -7.066406 14.898438 -7.113281 14.515625 -6.84375 C 14.109375 -6.539062 13.695312 -6.242188 13.28125 -5.953125 C 12.914062 -5.679688 12.546875 -5.429688 12.171875 -5.203125 C 10.910156 -4.335938 9.585938 -3.609375 8.203125 -3.015625 C 6.710938 -2.359375 5.148438 -2.101562 3.515625 -2.25 C 0.972656 -2.539062 -0.34375 -3.953125 -0.4375 -6.484375 C -0.46875 -8.265625 -0.09375 -9.859375 0.6875 -11.265625 C 1.476562 -12.671875 2.578125 -13.707031 3.984375 -14.375 C 5.398438 -15.050781 7.023438 -15.1875 8.859375 -14.78125 C 9.066406 -14.738281 9.335938 -14.675781 9.671875 -14.59375 C 9.878906 -14.53125 10.128906 -14.46875 10.421875 -14.40625 C 10.242188 -14.820312 10.082031 -15.195312 9.9375 -15.53125 C 9.664062 -16.0625 9.429688 -16.550781 9.234375 -17 C 8.003906 -19.519531 7.003906 -22.398438 6.234375 -25.640625 C 5.460938 -28.890625 5.082031 -32.222656 5.09375 -35.640625 C 5.113281 -39.054688 5.6875 -42.234375 6.8125 -45.171875 C 7.9375 -48.117188 9.804688 -50.539062 12.421875 -52.4375 C 14.085938 -53.5625 15.800781 -54.171875 17.5625 -54.265625 C 19.332031 -54.359375 21.003906 -53.972656 22.578125 -53.109375 C 24.148438 -52.242188 25.429688 -50.945312 26.421875 -49.21875 C 27.679688 -46.84375 28.460938 -44.34375 28.765625 -41.71875 C 29.304688 -37.46875 29.21875 -33.5 28.5 -29.8125 C 27.78125 -26.125 26.515625 -22.640625 24.703125 -19.359375 C 22.898438 -16.085938 20.601562 -12.90625 17.8125 -9.8125 C 17.539062 -9.519531 17.394531 -9.285156 17.375 -9.109375 C 17.363281 -8.929688 17.492188 -8.679688 17.765625 -8.359375 C 18.335938 -7.617188 18.957031 -6.894531 19.625 -6.1875 C 20.289062 -5.488281 21.035156 -4.90625 21.859375 -4.4375 C 23.015625 -3.9375 24.253906 -3.925781 25.578125 -4.40625 C 26.898438 -4.894531 28.125 -5.648438 29.25 -6.671875 C 30.382812 -7.703125 31.21875 -8.769531 31.75 -9.875 Z M 11.90625 -8.09375 C 12.25 -8.394531 12.273438 -8.734375 11.984375 -9.109375 C 11.804688 -9.328125 11.628906 -9.550781 11.453125 -9.78125 C 10.972656 -10.375 10.421875 -10.984375 9.796875 -11.609375 C 9.171875 -12.234375 8.523438 -12.707031 7.859375 -13.03125 C 7.191406 -13.351562 6.515625 -13.378906 5.828125 -13.109375 C 4.878906 -12.671875 4.101562 -11.882812 3.5 -10.75 C 2.894531 -9.625 2.535156 -8.46875 2.421875 -7.28125 C 2.316406 -6.09375 2.546875 -5.1875 3.109375 -4.5625 C 3.679688 -3.945312 4.648438 -3.890625 6.015625 -4.390625 C 8.160156 -5.335938 10.125 -6.570312 11.90625 -8.09375 Z M 16.390625 -12.484375 C 19.242188 -15.847656 21.375 -19.15625 22.78125 -22.40625 C 24.1875 -25.65625 25.140625 -29.460938 25.640625 -33.828125 C 25.796875 -34.890625 25.863281 -36.285156 25.84375 -38.015625 C 25.832031 -39.742188 25.675781 -41.546875 25.375 -43.421875 C 25.082031 -45.304688 24.550781 -47.019531 23.78125 -48.5625 C 23.007812 -50.113281 21.929688 -51.226562 20.546875 -51.90625 C 19.171875 -52.582031 17.398438 -52.578125 15.234375 -51.890625 C 12.859375 -50.503906 11.097656 -48.660156 9.953125 -46.359375 C 8.804688 -44.054688 8.148438 -41.492188 7.984375 -38.671875 C 7.828125 -35.859375 8.015625 -32.976562 8.546875 -30.03125 C 9.078125 -27.09375 9.816406 -24.300781 10.765625 -21.65625 C 11.722656 -19.019531 12.75 -16.726562 13.84375 -14.78125 C 13.96875 -14.53125 14.085938 -14.285156 14.203125 -14.046875 C 14.523438 -13.253906 15 -12.53125 15.625 -11.875 C 15.71875 -11.957031 15.8125 -12.035156 15.90625 -12.109375 C 16.082031 -12.210938 16.242188 -12.335938 16.390625 -12.484375 Z M 16.390625 -12.484375 "/></g></g><g transform="translate(223.264065, 212.237128)"><g><path d="M 15.546875 -11.078125 C 15.742188 -11.273438 15.847656 -11.023438 15.859375 -10.328125 C 15.878906 -9.640625 15.25 -8.671875 13.96875 -7.421875 C 12.695312 -6.171875 11.378906 -5.578125 10.015625 -5.640625 C 9.722656 -5.671875 9.472656 -5.648438 9.265625 -5.578125 C 9.054688 -5.503906 8.875 -5.332031 8.71875 -5.0625 C 8.570312 -4.820312 8.398438 -4.597656 8.203125 -4.390625 C 8.203125 -4.390625 8.1875 -4.378906 8.15625 -4.359375 C 7.320312 -3.460938 6.335938 -2.875 5.203125 -2.59375 C 4.078125 -2.3125 3.007812 -2.398438 2 -2.859375 C 0.988281 -3.316406 0.257812 -4.1875 -0.1875 -5.46875 C -0.507812 -6.625 -0.535156 -7.773438 -0.265625 -8.921875 C -0.0351562 -9.929688 0.332031 -10.882812 0.84375 -11.78125 C 1.46875 -12.96875 2.273438 -13.804688 3.265625 -14.296875 C 4.253906 -14.785156 5.378906 -15.0625 6.640625 -15.125 C 8.503906 -15.21875 9.675781 -14.335938 10.15625 -12.484375 C 10.457031 -11.421875 10.535156 -10.34375 10.390625 -9.25 C 10.347656 -9.007812 10.296875 -8.753906 10.234375 -8.484375 C 10.179688 -8.304688 10.132812 -8.128906 10.09375 -7.953125 C 10.039062 -7.359375 10.300781 -7.085938 10.875 -7.140625 C 12.4375 -7.410156 13.992188 -8.722656 15.546875 -11.078125 Z M 4.53125 -4.171875 C 5.488281 -4.617188 6.15625 -5.375 6.53125 -6.4375 C 4.945312 -7.445312 3.882812 -8.90625 3.34375 -10.8125 C 2.84375 -9.914062 2.535156 -8.875 2.421875 -7.6875 C 2.316406 -6.5 2.4375 -5.515625 2.78125 -4.734375 C 3.125 -3.960938 3.707031 -3.773438 4.53125 -4.171875 Z M 7.265625 -8.546875 C 7.523438 -8.921875 7.675781 -9.382812 7.71875 -9.9375 C 7.769531 -10.488281 7.742188 -11.035156 7.640625 -11.578125 C 7.535156 -12.128906 7.390625 -12.5625 7.203125 -12.875 C 7.023438 -13.1875 6.835938 -13.28125 6.640625 -13.15625 C 6.273438 -12.832031 6.070312 -12.363281 6.03125 -11.75 C 5.988281 -11.144531 6.078125 -10.539062 6.296875 -9.9375 C 6.523438 -9.332031 6.847656 -8.867188 7.265625 -8.546875 Z M 7.265625 -8.546875 "/></g></g></g><g fill="#d9d9d9" fill-opacity="1"><g transform="translate(117.150194, 248.437894)"><g><path d="M 3.617188 0.273438 C 4.023438 0.273438 4.40625 0.136719 4.730469 -0.164062 C 5.058594 -0.460938 5.21875 -0.816406 5.21875 -1.25 C 5.21875 -1.6875 5.058594 -2.039062 4.730469 -2.339844 C 4.40625 -2.636719 4.050781 -2.800781 3.617188 -2.800781 C 3.179688 -2.800781 2.800781 -2.636719 2.5 -2.339844 C 2.175781 -2.011719 2.039062 -1.660156 2.039062 -1.25 C 2.039062 -0.816406 2.175781 -0.460938 2.5 -0.164062 C 2.828125 0.136719 3.179688 0.273438 3.617188 0.273438 Z M 3.617188 0.273438 "/></g></g></g><g fill="#d9d9d9" fill-opacity="1"><g transform="translate(125.795931, 248.437894)"><g><path d="M 11.554688 -5.980469 C 11.554688 -4.8125 11.148438 -3.777344 10.332031 -2.9375 C 9.515625 -2.066406 8.507812 -1.632812 7.339844 -1.632812 C 6.144531 -1.632812 5.136719 -2.066406 4.324219 -2.9375 C 3.507812 -3.777344 3.125 -4.8125 3.125 -5.980469 C 3.125 -7.125 3.507812 -8.15625 4.324219 -9.027344 C 5.136719 -9.894531 6.144531 -10.332031 7.339844 -10.332031 C 8.507812 -10.332031 9.515625 -9.894531 10.332031 -9.027344 C 11.148438 -8.15625 11.554688 -7.125 11.554688 -5.980469 Z M 13.457031 0 L 13.457031 -20.390625 L 11.554688 -20.390625 L 11.554688 -9.894531 C 11.445312 -10.058594 11.308594 -10.195312 11.203125 -10.332031 C 10.058594 -11.582031 8.671875 -12.234375 7.042969 -12.234375 C 5.382812 -12.234375 3.996094 -11.582031 2.855469 -10.332031 C 1.765625 -9.082031 1.222656 -7.640625 1.222656 -5.980469 C 1.222656 -4.296875 1.765625 -2.855469 2.855469 -1.632812 C 3.996094 -0.351562 5.382812 0.273438 7.042969 0.273438 C 8.671875 0.273438 10.058594 -0.351562 11.203125 -1.632812 C 11.308594 -1.738281 11.445312 -1.875 11.554688 -2.039062 L 11.554688 0 Z M 13.457031 0 "/></g></g></g><g fill="#d9d9d9" fill-opacity="1"><g transform="translate(142.679502, 248.437894)"><g><path d="M 13.730469 -6.253906 C 13.730469 -7.882812 13.078125 -9.296875 11.828125 -10.523438 C 10.601562 -11.691406 9.136719 -12.289062 7.476562 -12.289062 C 5.738281 -12.289062 4.269531 -11.664062 3.046875 -10.441406 C 1.820312 -9.214844 1.222656 -7.75 1.222656 -6.035156 C 1.222656 -4.296875 1.820312 -2.828125 3.046875 -1.632812 C 3.617188 -1.058594 4.269531 -0.625 5.03125 -0.300781 C 5.789062 0.0273438 6.6875 0.191406 7.75 0.191406 C 8.808594 0.191406 9.84375 -0.136719 10.875 -0.789062 C 11.90625 -1.441406 12.667969 -2.367188 13.1875 -3.507812 L 11.011719 -3.507812 C 10.574219 -2.9375 10.058594 -2.5 9.433594 -2.175781 C 8.808594 -1.847656 8.15625 -1.710938 7.476562 -1.710938 C 6.445312 -1.710938 5.519531 -2.039062 4.703125 -2.71875 C 3.886719 -3.371094 3.371094 -4.214844 3.207031 -5.246094 L 13.730469 -5.246094 Z M 11.71875 -6.878906 L 3.234375 -6.878906 C 3.34375 -7.367188 3.535156 -7.828125 3.804688 -8.265625 C 4.675781 -9.679688 5.898438 -10.386719 7.476562 -10.386719 C 8.484375 -10.386719 9.378906 -10.058594 10.167969 -9.40625 C 10.984375 -8.726562 11.472656 -7.882812 11.71875 -6.878906 Z M 11.71875 -6.878906 "/></g></g></g><g fill="#d9d9d9" fill-opacity="1"><g transform="translate(158.883385, 248.437894)"><g><path d="M 5.789062 1.140625 L 11.28125 -11.960938 L 9.214844 -11.960938 L 5.789062 -3.070312 L 2.339844 -11.960938 L 0.273438 -11.960938 Z M 5.789062 1.140625 "/></g></g></g></svg>